<svg xmlns="http://www.w3.org/2000/svg" width="24" height="24" viewBox="0 0 24 24">
    <path fill="#2AA3EF" fill-rule="evenodd" d="M21 6.775a7.264 7.264 0 0 1-2.121.597 3.783 3.783 0 0 0 1.623-2.094 7.27 7.27 0 0 1-2.345.918A3.644 3.644 0 0 0 15.462 5c-2.04 0-3.694 1.695-3.694 3.787 0 .298.034.586.096.863-3.068-.157-5.789-1.666-7.61-3.957-.319.56-.5 1.21-.5 1.904a3.81 3.81 0 0 0 1.642 3.152 3.593 3.593 0 0 1-1.672-.474v.048c0 1.835 1.272 3.365 2.962 3.713a3.6 3.6 0 0 1-1.668.064c.47 1.505 1.834 2.6 3.45 2.63A7.302 7.302 0 0 1 3 18.299 10.262 10.262 0 0 0 8.661 20c6.792 0 10.507-5.77 10.507-10.774 0-.165-.004-.327-.01-.49A7.615 7.615 0 0 0 21 6.776z"/>
</svg>
