<svg fill="currentColor" xmlns="http://www.w3.org/2000/svg" width="24" height="24" viewBox="0 0 24 24">
    <path fill="inherit" fill-rule="evenodd" d="M13 5h5c.55 0 1 .45 1 1v12c0 .55-.45 1-1 1h-5c-.55 0-1 .45-1 1s.45 1 1 1h6c1.1 0 2-.9 2-2V5c0-1.1-.9-2-2-2h-6c-.55 0-1 .45-1 1s.45 1 1 1zm-6.587 6l1.879-1.88a.994.994 0 0 0 0-1.41.996.996 0 0 0-1.41 0l-3.59 3.59a.996.996 0 0 0 0 1.41l3.59 3.59a.993.993 0 0 0 1.41 0 .994.994 0 0 0 0-1.41L6.413 13h8.669c.551 0 1-.45 1-1s-.449-1-1-1H6.413z"/>
</svg>
